<?xml version="1.0" encoding="UTF-8" standalone="no"?>
<!-- Created with Inkscape (http://www.inkscape.org/) -->

<svg
   xmlns:dc="http://purl.org/dc/elements/1.1/"
   xmlns:cc="http://creativecommons.org/ns#"
   xmlns:rdf="http://www.w3.org/1999/02/22-rdf-syntax-ns#"
   xmlns:svg="http://www.w3.org/2000/svg"
   xmlns="http://www.w3.org/2000/svg"
   xmlns:sodipodi="http://sodipodi.sourceforge.net/DTD/sodipodi-0.dtd"
   xmlns:inkscape="http://www.inkscape.org/namespaces/inkscape"
   width="800px"
   height="600px"
   id="svg3050"
   version="1.1"
   inkscape:version="0.48.4 r9939"
   sodipodi:docname="New document 2">
  <defs
     id="defs3052" />
  <sodipodi:namedview
     id="base"
     pagecolor="#ffffff"
     bordercolor="#666666"
     borderopacity="1.0"
     inkscape:pageopacity="0.0"
     inkscape:pageshadow="2"
     inkscape:zoom="0.6"
     inkscape:cx="397.94749"
     inkscape:cy="300"
     inkscape:current-layer="layer1"
     inkscape:document-units="px"
     showgrid="false"
     inkscape:window-width="809"
     inkscape:window-height="558"
     inkscape:window-x="104"
     inkscape:window-y="104"
     inkscape:window-maximized="0" />
  <metadata
     id="metadata3055">
    <rdf:RDF>
      <cc:Work
         rdf:about="">
        <dc:format>image/svg+xml</dc:format>
        <dc:type
           rdf:resource="http://purl.org/dc/dcmitype/StillImage" />
        <dc:title></dc:title>
      </cc:Work>
    </rdf:RDF>
  </metadata>
  <g
     id="layer1"
     inkscape:label="Layer 1"
     inkscape:groupmode="layer">
    <g
       transform="matrix(0.65028583,0,0,0.72736547,-48.972906,-194.02643)"
       style="font-size:40px;font-style:normal;font-weight:normal;text-align:center;line-height:125%;letter-spacing:0px;word-spacing:0px;text-anchor:middle;fill:#000000;fill-opacity:1;stroke:none;font-family:Sans"
       id="text2985">
      <path
         d="m 109.19744,318.93487 -1.1211,17.19922 c -0.6745,-0.10935 -2.10549,-0.2643 -4.29297,-0.46485 -1.31252,-0.0547 -2.862,-0.0911 -4.64843,-0.10937 l -0.46485,8.80469 c 1.87759,0.0365 4.77602,-0.10025 8.69532,-0.41016 -0.18232,0.82033 -0.46488,2.16929 -0.84766,4.04687 -0.20055,1.112 -0.4193,2.45184 -0.65625,4.01954 -0.51044,-0.10937 -1.68622,-0.27343 -3.52734,-0.49219 -1.36721,-0.10937 -2.71617,-0.14583 -4.04688,-0.10938 l -0.21875,9.51563 -15.339838,0 -0.84766,-21.4375 c -0.14583,-4.92185 -0.555988,-11.77601 -1.230468,-20.5625 z"
         style="font-size:56px;font-variant:normal;font-stretch:normal;fill:#ff00ff;font-family:Showcard Gothic;-inkscape-font-specification:Showcard Gothic"
         id="path3112"
         inkscape:connector-curvature="0" />
      <path
         d="m 145.46728,302.6791 -0.62891,17.6914 c -0.18233,5.0495 -0.27347,12.68752 -0.27343,22.91407 -4.6667,1.67708 -9.42451,2.51562 -14.27344,2.51562 -5.97919,0 -10.52736,-1.19401 -13.64453,-3.58203 -2.64324,-2.02343 -4.51173,-5.17707 -5.60547,-9.46094 -0.63803,-2.46092 -1.23959,-6.96352 -1.80469,-13.50781 -0.54688,-6.05205 -0.88411,-11.57548 -1.01172,-16.57031 l 17.63672,0 c -0.0912,2.40629 -0.20054,6.32556 -0.32812,11.75781 -0.0547,3.02607 -0.0365,7.31903 0.0547,12.87891 0.0182,4.22918 0.3828,7.08204 1.09375,8.55859 0.74738,1.56772 2.24217,2.35157 4.48438,2.35156 0.63799,10e-6 1.34893,-0.18228 2.13281,-0.54687 -2e-5,-3.7552 -0.1094,-9.72524 -0.32812,-17.91016 -0.18232,-4.10153 -0.51956,-9.79814 -1.01172,-17.08984 z"
         style="font-size:56px;font-variant:normal;font-stretch:normal;fill:#ff00ff;font-family:Showcard Gothic;-inkscape-font-specification:Showcard Gothic"
         id="path3114"
         inkscape:connector-curvature="0" />
      <path
         d="m 178.74384,288.45686 c -0.21877,3.44535 -0.51955,9.62503 -0.90234,18.53906 -0.25523,7.4922 -0.30992,14.10027 -0.16406,19.82422 -3.99221,3.02604 -8.40366,4.53906 -13.23438,4.53906 -2.62501,0 -5.44141,-0.30078 -8.44922,-0.90234 -0.0729,-0.7474 -0.23698,-2.06901 -0.49219,-3.96485 -0.16406,-1.02082 -0.39192,-2.42447 -0.68359,-4.21093 0.5651,0.25521 2.00521,0.64714 4.32031,1.17578 1.22135,0.20053 2.36067,0.21876 3.41797,0.0547 -0.0182,-1.82291 -0.30079,-7.32811 -0.84765,-16.51563 -0.34636,-5.10414 -0.95704,-11.28382 -1.83204,-18.53906 z"
         style="font-size:56px;font-variant:normal;font-stretch:normal;fill:#ff00ff;font-family:Showcard Gothic;-inkscape-font-specification:Showcard Gothic"
         id="path3116"
         inkscape:connector-curvature="0" />
      <path
         d="m 212.41214,279.71588 -1.06641,22.33984 c -0.20054,4.81252 -0.43752,11.3659 -0.71093,19.66016 l -15.33985,0 -1.85937,-42 z"
         style="font-size:56px;font-variant:normal;font-stretch:normal;fill:#ff00ff;font-family:Showcard Gothic;-inkscape-font-specification:Showcard Gothic"
         id="path3118"
         inkscape:connector-curvature="0" />
      <path
         d="m 269.26196,272.72835 c -0.25525,3.68233 -0.61072,10.1081 -1.06641,19.27734 -0.27347,6.74481 -0.50134,14.50131 -0.68359,23.26953 -2.38806,-1.8776 -6.02477,-4.67577 -10.91016,-8.39453 -2.1146,-1.47655 -5.26825,-3.69139 -9.46094,-6.64453 l -0.27344,14.49219 -8.80468,0 c -0.14584,-3.70052 -0.48308,-10.68228 -1.01172,-20.94531 -0.45573,-8.31247 -0.92058,-15.3307 -1.39453,-21.05469 l 13.72656,0 10.17187,9.625 c -2e-5,-2.2057 -0.0365,-3.93746 -0.10937,-5.19531 -0.0547,-1.11194 -0.16409,-2.58851 -0.32813,-4.42969 z"
         style="font-size:56px;font-variant:normal;font-stretch:normal;fill:#ff00ff;font-family:Showcard Gothic;-inkscape-font-specification:Showcard Gothic"
         id="path3120"
         inkscape:connector-curvature="0" />
      <path
         d="m 356.94716,275.01875 -0.79297,17.19922 c -0.71097,-0.10935 -1.85029,-0.24607 -3.41797,-0.41016 -0.96617,-0.0547 -2.53388,-0.10935 -4.70312,-0.16406 -0.1094,1.07554 -0.30081,3.6732 -0.57422,7.79297 -0.20055,3.9922 -0.52867,9.85287 -0.98438,17.58203 l -13.23437,0 c -0.14584,-3.68229 -0.41928,-9.47004 -0.82031,-17.36328 -0.1823,-2.73436 -0.37371,-5.40493 -0.57422,-8.01172 l -4.32031,0.16406 -3.91016,0.41016 -0.68359,-17.19922 z"
         style="font-size:56px;font-variant:normal;font-stretch:normal;fill:#ff00ff;font-family:Showcard Gothic;-inkscape-font-specification:Showcard Gothic"
         id="path3122"
         inkscape:connector-curvature="0" />
      <path
         d="m 410.33052,289.78758 -1.17578,17.30859 c -0.6745,-0.10935 -2.13284,-0.30075 -4.375,-0.57422 -1.53127,-0.1458 -3.20835,-0.23695 -5.03125,-0.27343 l -0.41015,5.22265 c 2.00518,0.0547 5.27732,0.009 9.8164,-0.13672 -0.20055,0.6745 -0.51956,1.93231 -0.95703,3.77344 -0.25523,1.112 -0.4831,2.39715 -0.68359,3.85547 -0.52868,-0.12759 -1.85029,-0.29165 -3.96485,-0.49219 -0.98439,-0.0547 -2.44273,-0.0729 -4.375,-0.0547 l -0.27343,6.09766 c 1.36716,-0.0182 3.88279,-0.13671 7.54687,-0.35547 0.69268,-0.0547 1.832,-0.27343 3.41797,-0.65625 -0.14586,0.56511 -0.4831,1.92319 -1.01172,4.07422 -0.25524,1.11198 -0.56513,2.51563 -0.92969,4.21094 l -24.47265,0 -0.79297,-21.4375 c -0.14584,-4.90362 -0.50131,-11.75778 -1.06641,-20.5625 z"
         style="font-size:56px;font-variant:normal;font-stretch:normal;fill:#ff00ff;font-family:Showcard Gothic;-inkscape-font-specification:Showcard Gothic"
         id="path3124"
         inkscape:connector-curvature="0" />
      <path
         d="m 458.8721,354.24243 -14.95703,0 -1.01172,-3.63672 c -0.41929,0.16407 -1.46747,0.72005 -3.14453,1.66797 -1.07554,0.69271 -2.26955,1.61328 -3.58203,2.76172 l -1.5586,-3.3086 c -0.3099,-0.65624 -0.75652,-1.57682 -1.33984,-2.76172 l -1.47656,5.27735 -7.92969,0 c 1.16666,-4.5026 2.97135,-11.93098 5.41406,-22.28516 1.49479,-6.92705 2.74348,-13.49866 3.74609,-19.71484 l 16.4336,0 c 0.51039,2.86202 1.90492,9.52477 4.18359,19.98828 1.25778,5.46877 2.99867,12.806 5.22266,22.01172 z m -17.25391,-8.96875 c -0.30991,-0.96614 -0.85679,-2.53384 -1.64062,-4.70313 -0.47398,-1.20311 -1.19403,-2.86196 -2.16016,-4.97656 -0.41928,1.05731 -1.07553,2.78908 -1.96875,5.19531 -0.4922,1.38543 -1.07553,3.27215 -1.75,5.66016 0.54687,1e-5 1.78645,-0.10937 3.71875,-0.32813 1.16665,-0.16405 2.43358,-0.4466 3.80078,-0.84765 z"
         style="font-size:56px;font-variant:normal;font-stretch:normal;fill:#ff00ff;font-family:Showcard Gothic;-inkscape-font-specification:Showcard Gothic"
         id="path3126"
         inkscape:connector-curvature="0" />
      <path
         d="m 509.9786,338.98473 c -0.25526,3.82816 -0.62895,10.80993 -1.1211,20.94531 -0.25525,6.23439 -0.44665,13.25261 -0.57422,21.05469 l -9.89843,0 -0.27344,-12.87891 -9.65234,13.89063 -10.41797,-13.78125 -0.27344,12.76953 -9.84375,0 c -0.12761,-4.17448 -0.3737,-11.22916 -0.73828,-21.16406 -0.25521,-5.72394 -0.72006,-12.66924 -1.39453,-20.83594 l 15.66797,0 c 0.54685,1.33077 1.48565,3.48181 2.8164,6.45312 1.02081,2.11462 2.41534,4.61201 4.1836,7.49219 0.78383,-1.23955 2.22393,-3.80075 4.32031,-7.68359 0.74737,-1.44007 1.7044,-3.52731 2.87109,-6.26172 z"
         style="font-size:56px;font-variant:normal;font-stretch:normal;fill:#ff00ff;font-family:Showcard Gothic;-inkscape-font-specification:Showcard Gothic"
         id="path3128"
         inkscape:connector-curvature="0" />
      <path
         d="m 153.05396,472.91509 c -4e-5,5.1771 -1.65433,9.31968 -4.96289,12.42774 -3.30862,3.10808 -7.69729,4.66211 -13.16602,4.6621 l -0.32812,8.33985 -15.06641,0 -0.79297,-20.3711 c -0.23698,-5.24997 -0.61068,-12.4596 -1.12109,-21.6289 2.84375,-0.56506 7.00911,-0.84761 12.49609,-0.84766 6.69009,5e-5 12.04946,1.33989 16.07813,4.01953 4.57549,3.04431 6.86324,7.51045 6.86328,13.39844 z m -11.34766,4.59375 c -2e-5,-2.84373 -1.68622,-4.2656 -5.05859,-4.26562 -0.40106,2e-5 -0.81122,0.0274 -1.23047,0.082 l -0.27344,9.57031 c 4.37498,-0.14582 6.56248,-1.94139 6.5625,-5.38672 z"
         style="font-size:56px;font-variant:normal;font-stretch:normal;font-family:Showcard Gothic;-inkscape-font-specification:Showcard Gothic"
         id="path3130"
         inkscape:connector-curvature="0" />
      <path
         d="m 188.18082,464.074 c -4e-5,3.35419 -0.93884,6.32555 -2.81641,8.91407 -1.65888,2.26043 -3.73701,3.88282 -6.23437,4.86718 0.52862,0.82033 1.832,2.54298 3.91016,5.16797 1.03902,1.20313 2.62496,2.78907 4.75781,4.75782 -0.85681,0.30989 -2.74353,1.09375 -5.66016,2.35156 -2.04169,0.92969 -3.96487,1.84114 -5.76953,2.73437 -0.52867,-0.65625 -1.70445,-2.35156 -3.52734,-5.08593 -0.83857,-1.38542 -2.06903,-3.71875 -3.69141,-7 l -0.0547,0 -0.27343,9.57031 -15.39454,0 c -0.20052,-3.97396 -0.48307,-10.52733 -0.84765,-19.66016 -0.16407,-5.37758 -0.53776,-12.82418 -1.1211,-22.33984 5.01302,-0.5286 9.58854,-0.79293 13.72657,-0.79297 15.3307,4e-5 22.99605,5.50525 22.99609,16.51562 z m -12.41406,5.90625 c -3e-5,-1.73174 -0.72919,-2.97133 -2.1875,-3.71875 -1.07554,-0.54685 -2.4245,-0.78382 -4.04688,-0.71093 l -0.16406,9.35156 c 1.513,2e-5 2.86196,-0.33722 4.04688,-1.01172 1.56768,-0.87498 2.35153,-2.17837 2.35156,-3.91016 z"
         style="font-size:56px;font-variant:normal;font-stretch:normal;font-family:Showcard Gothic;-inkscape-font-specification:Showcard Gothic"
         id="path3132"
         inkscape:connector-curvature="0" />
      <path
         d="m 228.4664,446.04635 -1.17579,17.30859 c -0.6745,-0.10935 -2.13283,-0.30075 -4.375,-0.57422 -1.53127,-0.1458 -3.20835,-0.23695 -5.03125,-0.27343 l -0.41015,5.22265 c 2.00519,0.0547 5.27732,0.009 9.8164,-0.13672 -0.20054,0.6745 -0.51955,1.93231 -0.95703,3.77344 -0.25523,1.112 -0.4831,2.39715 -0.68359,3.85547 -0.52867,-0.12759 -1.85029,-0.29165 -3.96484,-0.49219 -0.9844,-0.0547 -2.44273,-0.0729 -4.375,-0.0547 l -0.27344,6.09766 c 1.36717,-0.0182 3.88279,-0.13671 7.54687,-0.35547 0.69269,-0.0547 1.83201,-0.27343 3.41797,-0.65625 -0.14586,0.56511 -0.4831,1.92319 -1.01172,4.07422 -0.25523,1.11198 -0.56513,2.51563 -0.92968,4.21094 l -24.47266,0 -0.79297,-21.4375 c -0.14583,-4.90362 -0.5013,-11.75778 -1.06641,-20.5625 z"
         style="font-size:56px;font-variant:normal;font-stretch:normal;font-family:Showcard Gothic;-inkscape-font-specification:Showcard Gothic"
         id="path3134"
         inkscape:connector-curvature="0" />
      <path
         d="m 282.97435,479.19615 c -1.34898,-0.30987 -2.36981,-0.46482 -3.0625,-0.46485 -0.85679,3e-5 -1.64064,0.2917 -2.35156,0.875 -0.85679,0.71096 -1.28517,1.63154 -1.28515,2.76172 -2e-5,0.87502 0.78383,2.56122 2.35156,5.0586 1.56768,2.49741 2.35154,4.79428 2.35156,6.89062 -2e-5,3.04428 -1.15758,5.54167 -3.47266,7.49219 -2.20574,1.8776 -4.931,2.8164 -8.17578,2.8164 -2.98959,0 -5.19532,-0.20963 -6.61718,-0.6289 -0.16407,-0.83854 -0.44663,-2.20573 -0.84766,-4.10156 -0.25521,-1.02083 -0.61068,-2.3789 -1.06641,-4.07422 2.0052,0.49219 3.35416,0.73829 4.04688,0.73828 2.71613,10e-6 4.0742,-1.02994 4.07422,-3.08985 -2e-5,-1.49477 -0.54689,-2.83462 -1.64063,-4.01953 -1.78647,-1.56769 -3.57292,-3.14451 -5.35937,-4.73047 -3.46355,-3.06247 -5.19532,-6.69919 -5.19532,-10.91015 0,-4.3932 1.64063,-7.72002 4.92188,-9.98047 2.86197,-1.96871 6.67186,-2.95308 11.42969,-2.95313 2.69789,5e-5 5.72393,0.39197 9.07812,1.17579 z"
         style="font-size:56px;font-variant:normal;font-stretch:normal;font-family:Showcard Gothic;-inkscape-font-specification:Showcard Gothic"
         id="path3136"
         inkscape:connector-curvature="0" />
      <path
         d="m 345.5486,514.80083 -1.17579,17.30859 c -0.6745,-0.10935 -2.13283,-0.30075 -4.375,-0.57422 -1.53127,-0.1458 -3.20835,-0.23695 -5.03125,-0.27343 l -0.41015,5.22265 c 2.00519,0.0547 5.27732,0.009 9.8164,-0.13672 -0.20054,0.6745 -0.51955,1.93231 -0.95703,3.77344 -0.25523,1.112 -0.4831,2.39715 -0.68359,3.85547 -0.52867,-0.12759 -1.85029,-0.29165 -3.96484,-0.49219 -0.9844,-0.0547 -2.44273,-0.0729 -4.375,-0.0547 l -0.27344,6.09766 c 1.36717,-0.0182 3.88279,-0.13671 7.54687,-0.35547 0.69269,-0.0547 1.83201,-0.27343 3.41797,-0.65625 -0.14586,0.56511 -0.4831,1.92319 -1.01172,4.07422 -0.25523,1.11198 -0.56513,2.51563 -0.92968,4.21094 l -24.47266,0 -0.79297,-21.4375 c -0.14583,-4.90362 -0.5013,-11.75778 -1.06641,-20.5625 z"
         style="font-size:56px;font-variant:normal;font-stretch:normal;font-family:Showcard Gothic;-inkscape-font-specification:Showcard Gothic"
         id="path3138"
         inkscape:connector-curvature="0" />
      <path
         d="m 395.68952,598.62471 c -0.25524,3.68233 -0.61071,10.1081 -1.0664,19.27734 -0.27347,6.74481 -0.50134,14.50131 -0.6836,23.26953 -2.38805,-1.8776 -6.02476,-4.67577 -10.91015,-8.39453 -2.11461,-1.47655 -5.26825,-3.69139 -9.46094,-6.64453 l -0.27344,14.49219 -8.80469,0 c -0.14583,-3.70052 -0.48307,-10.68228 -1.01171,-20.94531 -0.45574,-8.31247 -0.92058,-15.3307 -1.39454,-21.05469 l 13.72657,0 10.17187,9.625 c -2e-5,-2.2057 -0.0365,-3.93746 -0.10937,-5.19531 -0.0547,-1.11194 -0.16409,-2.58851 -0.32813,-4.42969 z"
         style="font-size:56px;font-variant:normal;font-stretch:normal;font-family:Showcard Gothic;-inkscape-font-specification:Showcard Gothic"
         id="path3140"
         inkscape:connector-curvature="0" />
      <path
         d="m 444.39109,664.4606 -0.79297,17.19922 c -0.71097,-0.10935 -1.85029,-0.24607 -3.41796,-0.41016 -0.96618,-0.0547 -2.53389,-0.10935 -4.70313,-0.16406 -0.1094,1.07554 -0.30081,3.6732 -0.57422,7.79297 -0.20054,3.9922 -0.52867,9.85287 -0.98437,17.58203 l -13.23438,0 c -0.14584,-3.68229 -0.41928,-9.47004 -0.82031,-17.36328 -0.1823,-2.73436 -0.37371,-5.40493 -0.57422,-8.01172 l -4.32031,0.16406 -3.91016,0.41016 -0.68359,-17.19922 z"
         style="font-size:56px;font-variant:normal;font-stretch:normal;font-family:Showcard Gothic;-inkscape-font-specification:Showcard Gothic"
         id="path3142"
         inkscape:connector-curvature="0" />
      <path
         d="m 480.97448,703.29994 c -1.34898,-0.30987 -2.36981,-0.46482 -3.0625,-0.46485 -0.85679,3e-5 -1.64064,0.2917 -2.35156,0.875 -0.85679,0.71096 -1.28517,1.63154 -1.28515,2.76172 -2e-5,0.87502 0.78383,2.56122 2.35156,5.0586 1.56768,2.49741 2.35154,4.79428 2.35156,6.89062 -2e-5,3.04428 -1.15758,5.54167 -3.47266,7.49219 -2.20574,1.8776 -4.931,2.8164 -8.17578,2.8164 -2.98959,0 -5.19532,-0.20963 -6.61718,-0.6289 -0.16407,-0.83854 -0.44663,-2.20573 -0.84766,-4.10156 -0.25521,-1.02083 -0.61068,-2.3789 -1.06641,-4.07422 2.0052,0.49219 3.35416,0.73829 4.04688,0.73828 2.71613,10e-6 4.0742,-1.02994 4.07422,-3.08985 -2e-5,-1.49477 -0.54689,-2.83462 -1.64063,-4.01953 -1.78647,-1.56769 -3.57292,-3.14451 -5.35937,-4.73047 -3.46355,-3.06247 -5.19532,-6.69919 -5.19532,-10.91015 0,-4.3932 1.64063,-7.72002 4.92188,-9.98047 2.86197,-1.96871 6.67186,-2.95308 11.42969,-2.95313 2.69789,5e-5 5.72393,0.39197 9.07812,1.17579 z"
         style="font-size:56px;font-variant:normal;font-stretch:normal;font-family:Showcard Gothic;-inkscape-font-specification:Showcard Gothic"
         id="path3144"
         inkscape:connector-curvature="0" />
      <path
         d="m 182.45258,638.97494 -1.1211,17.19922 c -0.6745,-0.10935 -2.10549,-0.2643 -4.29297,-0.46485 -1.31252,-0.0547 -2.862,-0.0911 -4.64843,-0.10937 l -0.46485,8.80469 c 1.87759,0.0365 4.77602,-0.10025 8.69532,-0.41016 -0.18232,0.82033 -0.46488,2.16929 -0.84766,4.04687 -0.20055,1.112 -0.4193,2.45184 -0.65625,4.01954 -0.51044,-0.10937 -1.68622,-0.27343 -3.52734,-0.49219 -1.36721,-0.10937 -2.71617,-0.14583 -4.04688,-0.10938 l -0.21875,9.51563 -15.33984,0 -0.84766,-21.4375 c -0.14583,-4.92185 -0.55599,-11.77601 -1.23047,-20.5625 z"
         style="font-size:56px;font-variant:normal;font-stretch:normal;fill:#00ff00;font-family:Showcard Gothic;-inkscape-font-specification:Showcard Gothic"
         id="path3146"
         inkscape:connector-curvature="0" />
      <path
         d="m 210.76609,675.32865 c -0.18232,0.72918 -0.51956,2.10548 -1.01171,4.12891 -0.25524,1.1849 -0.47399,2.57031 -0.65625,4.15625 l -24.7461,0 c -0.0911,-4.28385 -0.31901,-11.33853 -0.68359,-21.16406 -0.23698,-5.03123 -0.66537,-11.97653 -1.28516,-20.83594 l 18.97656,0 -1.55859,34.83594 c 1.76821,0 4.42055,-0.1914 7.95703,-0.57422 0.72914,-0.0729 1.73174,-0.2552 3.00781,-0.54688 z"
         style="font-size:56px;font-variant:normal;font-stretch:normal;fill:#00ff00;font-family:Showcard Gothic;-inkscape-font-specification:Showcard Gothic"
         id="path3148"
         inkscape:connector-curvature="0" />
      <path
         d="m 244.96319,698.12362 -14.95703,0 -1.01172,-3.63672 c -0.41929,0.16407 -1.46746,0.72005 -3.14453,1.66797 -1.07553,0.69271 -2.26954,1.61328 -3.58203,2.76172 l -1.55859,-3.3086 c -0.30991,-0.65624 -0.75652,-1.57682 -1.33985,-2.76172 l -1.47656,5.27735 -7.92969,0 c 1.16667,-4.5026 2.97136,-11.93098 5.41407,-22.28516 1.49478,-6.92705 2.74348,-13.49866 3.74609,-19.71484 l 16.43359,0 c 0.51039,2.86202 1.90492,9.52477 4.1836,19.98828 1.25778,5.46877 2.99866,12.806 5.22265,22.01172 z m -17.2539,-8.96875 c -0.30992,-0.96614 -0.85679,-2.53384 -1.64063,-4.70313 -0.47397,-1.20311 -1.19402,-2.86196 -2.16015,-4.97656 -0.41929,1.05731 -1.07554,2.78908 -1.96875,5.19531 -0.4922,1.38543 -1.07554,3.27215 -1.75,5.66016 0.54686,10e-6 1.78644,-0.10937 3.71875,-0.32813 1.16665,-0.16405 2.43357,-0.4466 3.80078,-0.84765 z"
         style="font-size:56px;font-variant:normal;font-stretch:normal;fill:#00ff00;font-family:Showcard Gothic;-inkscape-font-specification:Showcard Gothic"
         id="path3150"
         inkscape:connector-curvature="0" />
      <path
         d="m 282.56253,703.39088 c -3e-5,5.1771 -1.65433,9.31968 -4.96289,12.42774 -3.30862,3.10808 -7.69729,4.66211 -13.16601,4.6621 l -0.32813,8.33985 -15.06641,0 -0.79296,-20.3711 c -0.23699,-5.24997 -0.61068,-12.4596 -1.1211,-21.6289 2.84375,-0.56506 7.00911,-0.84761 12.4961,-0.84766 6.69008,5e-5 12.04945,1.33989 16.07812,4.01953 4.57549,3.04431 6.86325,7.51045 6.86328,13.39844 z m -11.34765,4.59375 c -3e-5,-2.84373 -1.68623,-4.2656 -5.0586,-4.26562 -0.40106,2e-5 -0.81121,0.0274 -1.23047,0.082 l -0.27343,9.57031 c 4.37497,-0.14582 6.56247,-1.94139 6.5625,-5.38672 z"
         style="font-size:56px;font-variant:normal;font-stretch:normal;fill:#00ff00;font-family:Showcard Gothic;-inkscape-font-specification:Showcard Gothic"
         id="path3152"
         inkscape:connector-curvature="0" />
      <path
         d="m 323.65492,744.26757 c -4e-5,5.1771 -1.65433,9.31968 -4.96289,12.42774 -3.30863,3.10808 -7.69729,4.66211 -13.16602,4.6621 l -0.32812,8.33985 -15.06641,0 -0.79297,-20.3711 c -0.23698,-5.24997 -0.61068,-12.4596 -1.12109,-21.6289 2.84374,-0.56506 7.0091,-0.84761 12.49609,-0.84766 6.69008,5e-5 12.04945,1.33989 16.07813,4.01953 4.57548,3.04431 6.86324,7.51045 6.86328,13.39844 z m -11.34766,4.59375 c -2e-5,-2.84373 -1.68622,-4.2656 -5.05859,-4.26562 -0.40106,2e-5 -0.81122,0.0274 -1.23047,0.082 l -0.27344,9.57031 c 4.37498,-0.14582 6.56248,-1.94139 6.5625,-5.38672 z"
         style="font-size:56px;font-variant:normal;font-stretch:normal;fill:#00ff00;font-family:Showcard Gothic;-inkscape-font-specification:Showcard Gothic"
         id="path3154"
         inkscape:connector-curvature="0" />
      <path
         d="m 368.85808,765.632 -5.14062,9.51562 c -1.38545,2.6068 -3.25394,6.25263 -5.60547,10.9375 -0.21878,2.55211 -0.50133,6.17059 -0.84766,10.85547 -0.1094,2.49741 -0.29169,6.0612 -0.54687,10.69141 l -14,0 c -0.0729,-2.26042 -0.23699,-5.8789 -0.49219,-10.85547 -0.14585,-1.87759 -0.48308,-5.44139 -1.01172,-10.69141 -0.94793,-1.95049 -2.53386,-5.11325 -4.75781,-9.48828 -1.44011,-2.66142 -3.53646,-6.31637 -6.28906,-10.96484 l 20.17968,0 c 0.32811,1.18494 0.90233,3.05342 1.72266,5.60547 l 2.625,7.38281 c 0.69268,-1.67705 1.63148,-4.15622 2.81641,-7.4375 0.40101,-1.29423 0.92054,-3.14449 1.55859,-5.55078 z"
         style="font-size:56px;font-variant:normal;font-stretch:normal;fill:#00ff00;font-family:Showcard Gothic;-inkscape-font-specification:Showcard Gothic"
         id="path3156"
         inkscape:connector-curvature="0" />
      <path
         d="m 421.92966,796.07681 c -0.25525,3.68233 -0.61072,10.1081 -1.06641,19.27734 -0.27347,6.74481 -0.50134,14.50131 -0.68359,23.26953 -2.38806,-1.8776 -6.02477,-4.67577 -10.91016,-8.39453 -2.1146,-1.47655 -5.26825,-3.69139 -9.46094,-6.64453 l -0.27344,14.49219 -8.80468,0 c -0.14584,-3.70052 -0.48308,-10.68228 -1.01172,-20.94531 -0.45573,-8.31247 -0.92058,-15.3307 -1.39453,-21.05469 l 13.72656,0 10.17187,9.625 c -2e-5,-2.2057 -0.0365,-3.93746 -0.10937,-5.19531 -0.0547,-1.11194 -0.16409,-2.58851 -0.32813,-4.42969 z"
         style="font-size:56px;font-variant:normal;font-stretch:normal;fill:#00ff00;font-family:Showcard Gothic;-inkscape-font-specification:Showcard Gothic"
         id="path3158"
         inkscape:connector-curvature="0" />
      <path
         d="m 445.68457,803.88827 -1.06641,22.33984 c -0.20054,4.81252 -0.43752,11.3659 -0.71093,19.66016 l -15.33985,0 -1.85937,-42 z"
         style="font-size:56px;font-variant:normal;font-stretch:normal;fill:#00ff00;font-family:Showcard Gothic;-inkscape-font-specification:Showcard Gothic"
         id="path3160"
         inkscape:connector-curvature="0" />
      <path
         d="m 482.62302,804.82133 c -0.25525,3.68233 -0.61072,10.1081 -1.06641,19.27734 -0.27347,6.74481 -0.50134,14.50131 -0.68359,23.26953 -2.38806,-1.8776 -6.02477,-4.67577 -10.91016,-8.39453 -2.1146,-1.47655 -5.26825,-3.69139 -9.46094,-6.64453 l -0.27344,14.49219 -8.80468,0 c -0.14584,-3.70052 -0.48308,-10.68228 -1.01172,-20.94531 -0.45573,-8.31247 -0.92058,-15.3307 -1.39453,-21.05469 l 13.72656,0 10.17187,9.625 c -2e-5,-2.2057 -0.0365,-3.93746 -0.10937,-5.19531 -0.0547,-1.11194 -0.16409,-2.58851 -0.32813,-4.42969 z"
         style="font-size:56px;font-variant:normal;font-stretch:normal;fill:#00ff00;font-family:Showcard Gothic;-inkscape-font-specification:Showcard Gothic"
         id="path3162"
         inkscape:connector-curvature="0" />
      <path
         d="m 507.89604,799.78242 c -0.21877,3.44535 -0.51955,9.62503 -0.90234,18.53906 -0.25523,7.4922 -0.30992,14.10027 -0.16406,19.82422 -3.99221,3.02604 -8.40366,4.53906 -13.23438,4.53906 -2.62501,0 -5.44141,-0.30078 -8.44922,-0.90234 -0.0729,-0.7474 -0.23698,-2.06901 -0.49219,-3.96485 -0.16406,-1.02082 -0.39192,-2.42447 -0.68359,-4.21093 0.5651,0.25521 2.00521,0.64714 4.32031,1.17578 1.22135,0.20053 2.36067,0.21876 3.41797,0.0547 -0.0182,-1.82291 -0.30079,-7.32811 -0.84765,-16.51563 -0.34636,-5.10414 -0.95704,-11.28382 -1.83204,-18.53906 z"
         style="font-size:56px;font-variant:normal;font-stretch:normal;fill:#00ff00;font-family:Showcard Gothic;-inkscape-font-specification:Showcard Gothic"
         id="path3164"
         inkscape:connector-curvature="0" />
      <path
         d="m 542.93285,831.15961 -14.95703,0 -1.01172,-3.63672 c -0.41929,0.16407 -1.46746,0.72005 -3.14453,1.66797 -1.07553,0.69271 -2.26954,1.61328 -3.58203,2.76172 l -1.55859,-3.3086 c -0.30991,-0.65624 -0.75652,-1.57682 -1.33985,-2.76172 l -1.47656,5.27735 -7.92969,0 c 1.16667,-4.5026 2.97136,-11.93098 5.41407,-22.28516 1.49478,-6.92705 2.74348,-13.49866 3.74609,-19.71484 l 16.43359,0 c 0.51039,2.86202 1.90492,9.52477 4.1836,19.98828 1.25778,5.46877 2.99866,12.806 5.22265,22.01172 z m -17.2539,-8.96875 c -0.30992,-0.96614 -0.85679,-2.53384 -1.64063,-4.70313 -0.47397,-1.20311 -1.19402,-2.86196 -2.16015,-4.97656 -0.41929,1.05731 -1.07554,2.78908 -1.96875,5.19531 -0.4922,1.38543 -1.07554,3.27215 -1.75,5.66016 0.54686,1e-5 1.78644,-0.10937 3.71875,-0.32813 1.16665,-0.16405 2.43357,-0.4466 3.80078,-0.84765 z"
         style="font-size:56px;font-variant:normal;font-stretch:normal;fill:#00ff00;font-family:Showcard Gothic;-inkscape-font-specification:Showcard Gothic"
         id="path3166"
         inkscape:connector-curvature="0" />
    </g>
  </g>
</svg>
